<?xml version="1.0" standalone="no"?>
<!DOCTYPE svg PUBLIC "-//W3C//DTD SVG 20010904//EN"
 "http://www.w3.org/TR/2001/REC-SVG-20010904/DTD/svg10.dtd">
<svg version="1.0" xmlns="http://www.w3.org/2000/svg"
 width="100.000000pt" height="100.000000pt" viewBox="0 0 100.000000 100.000000"
 preserveAspectRatio="xMidYMid meet">
<metadata>
Created by potrace 1.11, written by Peter Selinger 2001-2013
</metadata>
<g transform="translate(0.000000,100.000000) scale(0.100000,-0.100000)"
fill="#000000" stroke="none">
<path d="M423 904 c-5 -13 -7 -13 -14 -2 -7 10 -9 10 -9 -2 0 -13 -1 -13 -10
0 -8 13 -10 13 -10 -1 0 -11 -9 -15 -30 -14 -17 1 -27 -2 -23 -8 4 -6 -1 -8
-11 -4 -10 4 -15 3 -11 -3 6 -9 -8 -14 -27 -11 -5 0 -8 -3 -8 -7 0 -5 -12 -14
-26 -20 -14 -7 -22 -17 -19 -22 3 -6 -1 -7 -10 -4 -10 4 -15 2 -13 -7 2 -8 -3
-13 -10 -11 -7 1 -16 -6 -19 -15 -4 -10 -15 -27 -25 -38 -10 -10 -16 -25 -14
-32 3 -7 0 -12 -7 -10 -7 1 -12 -7 -12 -18 -1 -11 -7 -19 -14 -17 -7 1 -10 -2
-7 -7 4 -5 2 -12 -4 -16 -5 -3 -7 -17 -4 -31 3 -13 2 -24 -3 -24 -5 0 -10 -7
-10 -15 0 -8 4 -15 9 -15 5 0 6 -5 3 -10 -4 -6 -12 -7 -18 -3 -9 5 -9 3 0 -8
6 -8 12 -17 12 -21 1 -5 1 -9 2 -10 6 -18 3 -48 -4 -48 -5 0 -4 -7 3 -15 10
-12 10 -15 -1 -15 -8 0 -5 -6 7 -15 12 -9 14 -14 6 -15 -7 0 -10 -5 -7 -10 4
-6 10 -8 14 -6 4 3 8 -1 8 -9 0 -8 -5 -12 -11 -9 -6 3 0 -4 13 -15 13 -12 21
-27 17 -36 -5 -15 29 -55 48 -55 6 0 4 -5 -4 -10 -12 -8 -10 -10 8 -10 13 0
20 -4 17 -10 -3 -5 -1 -10 5 -10 6 0 8 -5 4 -12 -4 -6 -3 -8 3 -5 5 4 20 -3
31 -14 12 -11 22 -17 22 -14 0 4 7 -1 16 -10 9 -9 21 -14 28 -12 6 2 17 -3 24
-12 8 -9 11 -10 7 -4 -4 9 -1 11 9 7 9 -3 14 -9 11 -14 -2 -4 8 -7 23 -6 15 1
33 -6 40 -14 8 -8 11 -9 7 -2 -3 6 -1 13 4 13 6 1 15 2 20 3 5 0 13 5 18 10 4
5 3 6 -3 3 -8 -5 -11 16 -9 68 1 66 0 73 -14 62 -12 -9 -13 -9 -7 1 4 7 1 12
-9 12 -9 0 -14 4 -11 8 2 4 -4 9 -15 10 -10 1 -26 2 -35 3 -9 1 -24 15 -34 31
-9 15 -20 25 -23 21 -4 -3 -7 1 -7 10 0 10 -8 17 -17 17 -10 0 -14 4 -8 8 6 4
11 13 13 21 2 11 0 12 -11 3 -12 -10 -14 -8 -12 13 2 14 -1 25 -6 25 -6 0 -7
5 -4 10 4 6 1 18 -7 27 -7 9 -8 14 -2 10 7 -4 11 5 11 23 0 16 -5 27 -10 23
-5 -3 -4 4 3 17 6 12 9 28 6 35 -3 9 0 12 10 8 10 -4 12 0 8 11 -3 9 -1 16 5
16 6 0 11 7 11 15 0 8 5 15 11 15 5 0 8 3 6 8 -2 4 4 15 15 25 10 9 18 14 18
10 0 -3 8 3 18 13 16 18 34 26 60 27 6 0 12 4 12 9 0 5 5 6 10 3 6 -3 10 -3
11 2 0 4 2 18 5 31 2 13 0 21 -5 18 -5 -3 -7 3 -4 14 3 11 9 18 12 15 4 -2 8
2 8 10 0 8 -4 12 -9 9 -5 -3 -7 6 -4 20 3 19 0 26 -11 26 -9 0 -13 6 -9 15 3
8 3 15 0 15 -2 0 -7 -7 -11 -16z m-313 -278 c0 -3 -4 -8 -10 -11 -5 -3 -10 -1
-10 4 0 6 5 11 10 11 6 0 10 -2 10 -4z"/>
<path d="M526 905 c-14 -11 -16 -15 -5 -15 12 0 12 -2 -1 -10 -13 -9 -13 -10
0 -10 12 0 12 -2 2 -9 -8 -4 -14 -12 -14 -16 0 -4 6 -12 14 -16 9 -6 9 -9 1
-9 -17 0 -12 -51 7 -70 8 -9 24 -17 35 -17 11 -1 21 -7 23 -13 2 -5 10 -10 17
-10 8 0 22 -11 33 -25 11 -13 22 -21 26 -18 3 3 6 0 6 -7 0 -7 8 -19 18 -27
10 -9 11 -12 2 -7 -8 4 -4 -5 10 -21 14 -16 19 -25 13 -21 -15 8 -18 -10 -3
-19 5 -3 6 -13 3 -22 -4 -9 -2 -14 3 -11 5 4 9 -5 9 -18 0 -13 -4 -24 -9 -24
-5 0 -2 -8 5 -17 8 -9 9 -14 3 -10 -7 4 -11 -3 -11 -19 0 -15 -6 -30 -13 -34
-7 -4 -9 -13 -6 -19 4 -6 2 -11 -4 -11 -6 0 -15 -11 -20 -25 -5 -14 -17 -25
-25 -25 -9 0 -13 -4 -10 -10 3 -5 0 -10 -8 -10 -8 0 -18 -7 -21 -16 -3 -8 -11
-12 -17 -9 -5 4 -17 -1 -25 -11 -13 -18 -14 -18 -7 1 6 18 3 17 -20 -5 -27
-25 -38 -58 -14 -44 8 5 8 2 -2 -9 -10 -13 -11 -20 -2 -31 9 -10 9 -16 1 -21
-8 -5 -7 -11 2 -23 7 -9 8 -13 2 -9 -6 3 -11 0 -11 -8 0 -8 4 -12 9 -9 4 3 8
0 8 -5 0 -6 5 -11 11 -11 5 0 8 4 5 8 -3 5 1 9 9 9 8 0 12 -5 8 -10 -3 -5 4
-4 16 2 11 7 21 8 21 4 0 -4 5 -2 12 5 7 7 18 12 26 12 8 0 21 8 29 18 8 9 12
11 8 5 -10 -21 2 -15 42 20 21 17 31 23 23 12 -7 -11 4 -2 27 20 22 22 39 41
37 43 -1 2 6 12 17 23 11 11 17 25 13 32 -4 7 -4 9 1 5 11 -10 38 29 30 42 -3
6 -1 10 5 10 6 0 8 5 5 10 -4 6 -1 17 5 25 6 8 9 23 5 35 -4 12 -2 20 5 20 6
0 8 -5 4 -12 -4 -7 -3 -8 5 -4 6 4 8 13 4 19 -4 7 -9 23 -10 37 -3 20 -1 22 7
10 5 -8 10 -11 10 -6 0 5 -8 18 -17 29 -10 11 -12 17 -5 13 6 -4 12 -3 12 1 0
5 -6 15 -12 22 -11 12 -9 13 7 7 18 -7 18 -5 -3 17 -17 18 -19 26 -10 35 8 8
8 12 1 12 -6 0 -14 7 -17 16 -3 8 -2 13 3 10 5 -4 7 3 4 15 -3 11 -15 25 -27
29 -11 5 -15 9 -8 9 10 1 10 4 0 15 -7 8 -16 12 -21 9 -4 -2 -7 -1 -6 4 4 21
-2 33 -17 33 -8 0 -13 4 -10 8 3 5 -4 14 -14 22 -10 8 -16 18 -13 23 4 6 1 7
-7 2 -8 -5 -18 -2 -26 9 -7 10 -16 17 -21 18 -4 0 -7 4 -5 9 1 6 -7 5 -19 -2
-15 -8 -19 -8 -15 0 4 7 -1 11 -13 11 -11 0 -23 5 -27 11 -3 6 -17 9 -30 6
-13 -2 -21 -1 -19 4 3 4 1 10 -5 14 -5 3 -10 1 -10 -5 0 -6 -5 -8 -10 -5 -6 4
-8 11 -5 16 8 12 3 11 -19 -6z"/>
<path d="M450 691 c0 -7 -4 -10 -9 -6 -5 3 -16 -2 -25 -11 -9 -8 -20 -13 -25
-9 -5 3 -13 0 -17 -6 -5 -8 -3 -9 7 -4 8 4 -1 -6 -19 -22 -21 -20 -30 -36 -26
-47 4 -9 0 -18 -9 -22 -9 -3 -14 -15 -12 -30 1 -13 -2 -24 -8 -24 -5 0 -5 -5
2 -13 6 -8 8 -17 4 -20 -3 -4 0 -14 8 -24 12 -15 12 -16 -1 -9 -13 6 -13 5 0
-6 9 -7 14 -22 12 -33 -2 -16 -1 -17 7 -5 9 12 11 11 11 -8 0 -13 4 -20 10
-17 6 3 10 -1 10 -9 0 -14 12 -20 33 -17 4 0 7 -4 7 -10 0 -6 7 -9 15 -6 8 4
17 1 21 -5 5 -7 2 -8 -7 -3 -8 5 -11 4 -6 0 11 -12 77 -14 77 -3 0 6 7 8 15 4
8 -3 15 -1 15 5 0 6 5 7 10 4 6 -4 23 7 40 23 16 16 32 27 36 23 4 -3 4 -1 1
5 -4 6 2 22 13 34 22 25 27 45 9 34 -7 -4 -6 3 2 17 7 13 13 32 14 41 1 15 -1
15 -13 5 -13 -10 -14 -9 -5 6 11 21 6 67 -8 67 -5 0 -9 7 -9 15 0 8 -5 15 -11
15 -5 0 -7 5 -4 10 3 6 -1 10 -9 10 -9 0 -16 8 -16 18 0 14 -2 15 -10 2 -8
-12 -10 -12 -10 5 0 17 -2 17 -10 5 -8 -13 -10 -12 -10 4 0 11 -3 16 -6 13 -4
-3 -15 -2 -25 4 -14 7 -19 6 -19 -3 0 -9 -3 -9 -10 2 -8 12 -10 12 -10 1 0
-11 -3 -11 -15 -1 -11 9 -15 9 -15 1z"/>
<path d="M315 580 c3 -5 8 -10 11 -10 2 0 4 5 4 10 0 6 -5 10 -11 10 -5 0 -7
-4 -4 -10z"/>
<path d="M60 479 c0 -5 5 -7 10 -4 6 3 10 8 10 11 0 2 -4 4 -10 4 -5 0 -10 -5
-10 -11z"/>
</g>
</svg>
